# xmcd
#
# Track frame offsets: 
#        150
#        16563
#        51578
#
# Disc length: 1160 seconds
#
# Revision: 5
# Processed by: cddbd v1.5.2PL0 Copyright (c) Steve Scherf et al.
# Submitted via: ExactAudioCopy v0.99pb5
#
DISCID=1b048603
DTITLE=Nine Inch Nails - The Hand That Feeds (UK Halo 18)
DYEAR=2005
DGENRE=Industrial
TTITLE0=The Hand That Feeds
TTITLE1=The Hand That Feeds (Straight Mix)
TTITLE2=The Hand That Feeds (Dub Mix)
EXTD=
EXTT0=
EXTT1=
EXTT2=
PLAYORDER=
